<svg width="500" height="80" xmlns="http://www.w3.org/2000/svg">
 <g id="Layer_1">
  <title>Layer 1</title>
  <path id="svg_1" d="m235.29463,22.70683l129.26785,0l0,31.14375l-129.26785,0l0,-31.14375z" transform="rotate(65, 299.929, 38.2787)" opacity="undefined" fill="#ff7f00"/>
  <rect transform="rotate(65, 92.6038, 54.0804)" id="svg_2" height="291.4935" width="232.30085" y="-91.66637" x="-23.54665" fill="#ff7f00"/>
  <path id="svg_7" d="m287.39057,-3.20747l158.5557,0l0,75.15694l-158.5557,0l0,-75.15694z" transform="rotate(65, 366.668, 34.371)" opacity="undefined" fill="#ff7f00"/>
  <path id="svg_9" d="m344.48477,59.78788l-110,0.21206" transform="rotate(65, 289.485, 59.8939)" opacity="undefined" stroke="#ff7f00" fill="none"/>
  <path id="svg_11" d="m235.29463,22.70683l129.26785,0l0,31.14375l-129.26785,0l0,-31.14375z" transform="rotate(65, 299.929, 38.2787)" opacity="undefined" fill="#ff7f00"/>
  <path id="svg_12" d="m297.81818,22.81824l-110,0.21206" transform="rotate(65, 242.819, 22.9243)" opacity="undefined" stroke="#ff7f00" fill="none"/>
  <path id="svg_13" d="m401.93585,-9.26806l158.5557,0l0,75.15694l-158.5557,0l0,-75.15694z" transform="rotate(65, 481.213, 28.3104)" opacity="undefined" fill="#ff7f00"/>
 </g>
</svg>